<svg xmlns="http://www.w3.org/2000/svg" xmlns:xlink="http://www.w3.org/1999/xlink" width="500" zoomAndPan="magnify" viewBox="0 0 375 374.999991" height="500" preserveAspectRatio="xMidYMid meet" version="1.0"><defs><g/></defs><rect x="-37.5" width="450" fill="#ffffff" y="-37.499999" height="449.999989" fill-opacity="1"/><rect x="-37.5" width="450" fill="#ffffff" y="-37.499999" height="449.999989" fill-opacity="1"/><path fill="#c27d46" d="M 235.484375 96.324219 C 237 93.210938 240.167969 90.957031 243.609375 90.554688 C 241.707031 91.277344 239.921875 92.316406 238.359375 93.617188 C 237.824219 94.0625 237.308594 94.546875 236.945312 95.140625 C 236.582031 95.734375 236.378906 96.453125 236.519531 97.136719 C 236.140625 97.03125 235.832031 96.699219 235.484375 96.324219 Z M 235.484375 96.324219 " fill-opacity="1" fill-rule="nonzero"/><path fill="#c27d46" d="M 252.550781 123.550781 C 252.503906 123.550781 252.453125 123.542969 252.402344 123.527344 C 252.136719 123.445312 251.992188 123.167969 252.074219 122.902344 C 252.875 120.3125 252.851562 117.464844 252.011719 114.886719 C 251.925781 114.625 252.070312 114.34375 252.335938 114.257812 C 252.597656 114.171875 252.878906 114.316406 252.964844 114.578125 C 253.867188 117.351562 253.890625 120.414062 253.03125 123.199219 C 252.964844 123.414062 252.765625 123.550781 252.550781 123.550781 Z M 252.550781 123.550781 " fill-opacity="1" fill-rule="nonzero"/><path fill="#c27d46" d="M 124.21875 172.207031 C 123.351562 172.207031 122.683594 171.894531 122.265625 171.273438 C 121.628906 170.324219 121.96875 169.0625 122.636719 168.304688 C 123.285156 167.566406 124.179688 167.179688 124.96875 166.835938 L 188.476562 139.179688 C 188.695312 139.082031 188.949219 139.152344 189.085938 139.347656 C 189.222656 139.542969 189.203125 139.804688 189.042969 139.980469 C 188.003906 141.09375 186.675781 142.230469 184.863281 143.550781 C 180.597656 146.660156 175.890625 149.203125 171.851562 151.28125 C 160.648438 157.042969 148.886719 162.082031 137.507812 166.953125 L 126.582031 171.632812 C 125.6875 172.015625 124.890625 172.207031 124.214844 172.207031 Z M 186.175781 141.273438 L 125.371094 167.753906 C 124.675781 168.054688 123.890625 168.398438 123.390625 168.96875 C 122.988281 169.425781 122.746094 170.191406 123.097656 170.710938 C 123.722656 171.640625 125.464844 171.019531 126.1875 170.710938 L 137.113281 166.03125 C 148.476562 161.167969 160.222656 156.136719 171.390625 150.390625 C 175.398438 148.332031 180.0625 145.808594 184.273438 142.742188 C 184.980469 142.226562 185.613281 141.742188 186.175781 141.273438 Z M 186.175781 141.273438 " fill-opacity="1" fill-rule="nonzero"/><path fill="#c27d46" d="M 189.082031 163 C 188.890625 163 188.707031 162.890625 188.625 162.707031 C 188.511719 162.453125 188.625 162.15625 188.875 162.042969 C 194.695312 159.417969 202.675781 153.933594 207.550781 149.875 C 209.070312 148.613281 210.730469 147.097656 211.234375 145.101562 C 211.742188 143.105469 210.976562 140.757812 209.242188 138.984375 C 207.507812 137.214844 205.109375 136.203125 203.210938 135.523438 C 202.5625 135.289062 201.890625 135.066406 201.242188 134.851562 C 199.621094 134.3125 197.945312 133.753906 196.382812 132.964844 C 196.214844 132.882812 196.046875 132.792969 195.878906 132.707031 C 194.953125 132.226562 194.078125 131.769531 193.148438 131.761719 C 193.136719 131.761719 193.125 131.761719 193.117188 131.761719 C 191.460938 131.761719 190.15625 133.222656 189.640625 134.585938 C 189.0625 136.117188 189.085938 137.703125 189.175781 139.613281 C 189.191406 139.890625 188.976562 140.125 188.699219 140.136719 C 188.417969 140.152344 188.1875 139.9375 188.175781 139.660156 C 188.097656 137.980469 188.007812 136.082031 188.703125 134.234375 C 189.335938 132.554688 190.984375 130.757812 193.117188 130.757812 C 193.128906 130.757812 193.144531 130.757812 193.15625 130.757812 C 194.328125 130.769531 195.351562 131.304688 196.339844 131.816406 C 196.503906 131.902344 196.667969 131.988281 196.828125 132.070312 C 198.332031 132.824219 199.96875 133.371094 201.554688 133.898438 C 202.210938 134.113281 202.886719 134.339844 203.546875 134.578125 C 205.546875 135.296875 208.078125 136.363281 209.953125 138.28125 C 211.933594 140.304688 212.796875 143.011719 212.203125 145.347656 C 211.652344 147.527344 209.949219 149.179688 208.1875 150.644531 C 203.257812 154.746094 195.183594 160.292969 189.285156 162.953125 C 189.21875 162.984375 189.148438 163 189.078125 163 Z M 189.082031 163 " fill-opacity="1" fill-rule="nonzero"/><path fill="#c27d46" d="M 195.90625 176.683594 C 195.773438 176.683594 195.640625 176.632812 195.542969 176.53125 C 195.351562 176.332031 195.355469 176.011719 195.554688 175.820312 C 201.839844 169.773438 208.316406 162.015625 212.453125 155.574219 C 213.46875 153.996094 214.402344 152.285156 214.371094 150.496094 C 214.34375 148.855469 213.144531 147.019531 211.464844 147.003906 C 211.191406 147 210.964844 146.773438 210.96875 146.496094 C 210.972656 146.222656 211.195312 146 211.472656 146 L 211.476562 146 C 213.761719 146.023438 215.339844 148.332031 215.375 150.480469 C 215.410156 152.539062 214.398438 154.40625 213.296875 156.117188 C 209.117188 162.617188 202.585938 170.445312 196.253906 176.542969 C 196.15625 176.636719 196.03125 176.683594 195.90625 176.683594 Z M 195.90625 176.683594 " fill-opacity="1" fill-rule="nonzero"/><path fill="#c27d46" d="M 199.671875 189.933594 C 199.535156 189.933594 199.398438 189.878906 199.300781 189.769531 C 199.113281 189.5625 199.132812 189.246094 199.335938 189.0625 C 204.535156 184.390625 214.941406 173.171875 219.417969 167.886719 C 220.820312 166.230469 222.335938 164.269531 222.550781 161.992188 C 222.71875 160.175781 222.011719 158.335938 221.296875 156.773438 C 220.15625 154.277344 218.757812 151.894531 217.136719 149.679688 C 216.730469 149.125 216.320312 148.601562 215.785156 148.292969 C 215.347656 148.042969 214.714844 147.925781 214.277344 148.230469 C 214.050781 148.390625 213.738281 148.335938 213.578125 148.109375 C 213.421875 147.882812 213.472656 147.570312 213.703125 147.410156 C 214.40625 146.917969 215.417969 146.921875 216.285156 147.421875 C 216.992188 147.832031 217.492188 148.46875 217.945312 149.085938 C 219.605469 151.355469 221.039062 153.800781 222.207031 156.355469 C 222.976562 158.039062 223.738281 160.03125 223.546875 162.085938 C 223.320312 164.53125 221.796875 166.628906 220.183594 168.535156 C 215.6875 173.839844 205.234375 185.109375 200.007812 189.808594 C 199.910156 189.894531 199.792969 189.9375 199.671875 189.9375 Z M 199.671875 189.933594 " fill-opacity="1" fill-rule="nonzero"/><path fill="#c27d46" d="M 144.703125 231.019531 C 144.601562 231.019531 144.496094 230.988281 144.40625 230.917969 C 144.183594 230.753906 144.136719 230.441406 144.300781 230.21875 C 150.691406 221.582031 160.648438 216.6875 170.28125 211.953125 C 171.269531 211.46875 172.253906 210.984375 173.230469 210.5 C 199.78125 197.289062 223.921875 180.015625 244.988281 159.152344 C 243.222656 156.054688 240.765625 154.574219 238.054688 154.976562 C 236.484375 155.210938 234.902344 156.019531 233.203125 157.445312 C 232.429688 158.097656 231.691406 158.824219 230.972656 159.527344 C 230.335938 160.152344 229.679688 160.796875 228.988281 161.398438 C 227.8125 162.425781 226.523438 163.347656 225.273438 164.238281 C 223.300781 165.644531 221.261719 167.101562 219.714844 168.96875 C 219.539062 169.179688 219.222656 169.210938 219.011719 169.035156 C 218.796875 168.859375 218.765625 168.542969 218.941406 168.328125 C 220.570312 166.359375 222.664062 164.867188 224.691406 163.421875 C 225.917969 162.546875 227.191406 161.636719 228.328125 160.644531 C 228.996094 160.0625 229.640625 159.425781 230.269531 158.8125 C 231 158.097656 231.753906 157.355469 232.558594 156.679688 C 234.398438 155.128906 236.148438 154.25 237.90625 153.988281 C 241.117188 153.507812 244.085938 155.335938 246.050781 159.003906 C 246.15625 159.199219 246.121094 159.441406 245.964844 159.597656 C 224.753906 180.65625 200.433594 198.082031 173.675781 211.398438 C 172.695312 211.886719 171.710938 212.371094 170.722656 212.855469 C 161.199219 217.535156 151.351562 222.378906 145.105469 230.816406 C 145.007812 230.949219 144.855469 231.019531 144.703125 231.019531 Z M 144.703125 231.019531 " fill-opacity="1" fill-rule="nonzero"/><path fill="#c27d46" d="M 253.042969 98.699219 C 253.03125 98.699219 253.019531 98.699219 253.007812 98.699219 C 252.765625 98.683594 252.570312 98.496094 252.542969 98.257812 C 251.910156 92.757812 249.253906 87.40625 245.253906 83.574219 C 245.054688 83.382812 245.046875 83.066406 245.242188 82.863281 C 245.433594 82.664062 245.75 82.65625 245.949219 82.851562 C 249.472656 86.226562 251.992188 90.734375 253.089844 95.515625 C 254.144531 88.753906 252.738281 81.070312 249.03125 73.574219 C 245.242188 65.925781 239.660156 59.269531 234.261719 52.832031 C 234.085938 52.621094 234.109375 52.304688 234.324219 52.125 C 234.535156 51.949219 234.851562 51.976562 235.03125 52.1875 C 240.464844 58.667969 246.089844 65.375 249.929688 73.128906 C 254.222656 81.804688 255.5 90.753906 253.527344 98.324219 C 253.46875 98.546875 253.269531 98.699219 253.042969 98.699219 Z M 253.042969 98.699219 " fill-opacity="1" fill-rule="nonzero"/><path fill="#c27d46" d="M 237.050781 237.582031 C 237.050781 237.582031 237.042969 237.582031 237.039062 237.582031 C 236.765625 237.578125 236.542969 237.351562 236.546875 237.074219 C 236.613281 233.210938 235.941406 229.304688 235.292969 225.53125 C 234.960938 223.585938 234.613281 221.574219 234.367188 219.582031 C 233.453125 212.105469 234.40625 206.398438 237.277344 202.132812 C 240.101562 197.941406 244.648438 195.414062 248.71875 193.492188 C 249.988281 192.894531 251.289062 192.316406 252.550781 191.753906 C 256.230469 190.125 260.035156 188.4375 263.339844 186.089844 C 268.371094 182.515625 271.410156 177.746094 271.679688 173.003906 C 271.839844 170.1875 271.042969 167.363281 270.277344 164.632812 C 269.933594 163.417969 269.582031 162.160156 269.308594 160.910156 C 268.085938 155.246094 268.503906 149.367188 268.910156 143.679688 C 269.273438 138.617188 269.644531 133.378906 268.84375 128.34375 C 266.988281 116.699219 259.199219 106.988281 252.324219 98.421875 C 252.152344 98.207031 252.1875 97.890625 252.402344 97.71875 C 252.617188 97.542969 252.933594 97.578125 253.105469 97.792969 C 257.046875 102.707031 260.550781 107.167969 263.496094 112.023438 C 266.929688 117.675781 269.003906 122.964844 269.832031 128.183594 C 270.652344 133.332031 270.277344 138.628906 269.910156 143.75 C 269.511719 149.367188 269.097656 155.171875 270.289062 160.699219 C 270.554688 161.921875 270.902344 163.160156 271.238281 164.359375 C 272.03125 167.171875 272.847656 170.074219 272.679688 173.0625 C 272.394531 178.109375 269.199219 183.15625 263.917969 186.90625 C 260.53125 189.3125 256.683594 191.019531 252.957031 192.671875 C 251.703125 193.226562 250.402344 193.804688 249.144531 194.398438 C 245.199219 196.257812 240.796875 198.699219 238.109375 202.691406 C 235.378906 206.746094 234.480469 212.230469 235.363281 219.457031 C 235.605469 221.425781 235.949219 223.425781 236.28125 225.359375 C 236.9375 229.179688 237.617188 233.132812 237.550781 237.089844 C 237.546875 237.363281 237.324219 237.582031 237.050781 237.582031 Z M 237.050781 237.582031 " fill-opacity="1" fill-rule="nonzero"/><path fill="#c27d46" d="M 222.855469 238.933594 C 222.757812 238.933594 222.660156 238.90625 222.574219 238.847656 C 222.34375 238.695312 222.285156 238.382812 222.441406 238.152344 C 226.171875 232.648438 228.074219 226.0625 229.910156 219.695312 C 231.589844 213.875 233.328125 207.855469 236.460938 202.578125 C 240.429688 195.894531 246.574219 190.589844 253.761719 187.640625 C 254.015625 187.535156 254.308594 187.65625 254.414062 187.914062 C 254.519531 188.167969 254.398438 188.460938 254.140625 188.566406 C 247.152344 191.4375 241.179688 196.59375 237.324219 203.089844 C 234.257812 208.257812 232.539062 214.210938 230.875 219.972656 C 229.015625 226.417969 227.089844 233.078125 223.273438 238.714844 C 223.175781 238.859375 223.015625 238.9375 222.855469 238.9375 Z M 222.855469 238.933594 " fill-opacity="1" fill-rule="nonzero"/><path fill="#c27d46" d="M 219.875 223.273438 C 219.734375 223.273438 219.59375 223.210938 219.492188 223.09375 C 219.3125 222.882812 219.339844 222.566406 219.554688 222.386719 C 223.839844 218.773438 227.011719 214.097656 229.894531 209.617188 C 230.261719 209.046875 230.628906 208.476562 230.992188 207.902344 C 233.589844 203.835938 236.28125 199.628906 239.636719 196.039062 C 242.695312 192.769531 247.671875 188.652344 254.023438 187.613281 C 254.296875 187.570312 254.554688 187.753906 254.597656 188.027344 C 254.640625 188.300781 254.457031 188.558594 254.183594 188.605469 C 248.113281 189.59375 243.320312 193.566406 240.367188 196.722656 C 237.074219 200.246094 234.410156 204.414062 231.835938 208.445312 C 231.46875 209.015625 231.105469 209.589844 230.738281 210.160156 C 227.8125 214.703125 224.585938 219.449219 220.195312 223.15625 C 220.101562 223.234375 219.988281 223.273438 219.875 223.273438 Z M 219.875 223.273438 " fill-opacity="1" fill-rule="nonzero"/><path fill="#c27d46" d="M 205.210938 193.589844 C 204.886719 193.589844 204.5625 193.585938 204.238281 193.582031 C 203.960938 193.578125 203.742188 193.351562 203.746094 193.070312 C 203.75 192.796875 203.972656 192.578125 204.246094 192.578125 L 204.253906 192.578125 C 205.835938 192.605469 207.433594 192.566406 209 192.46875 C 215.722656 192.046875 222.449219 190.511719 228.960938 189.027344 C 236.945312 187.203125 245.203125 185.316406 253.535156 185.464844 C 254.222656 185.480469 254.929688 185.503906 255.613281 185.527344 C 259.214844 185.65625 262.941406 185.789062 266.039062 184.140625 C 266.285156 184.007812 266.589844 184.101562 266.71875 184.347656 C 266.847656 184.59375 266.753906 184.894531 266.511719 185.023438 C 263.175781 186.800781 259.3125 186.664062 255.574219 186.527344 C 254.894531 186.503906 254.195312 186.480469 253.515625 186.46875 C 245.308594 186.320312 237.109375 188.191406 229.179688 190 C 222.632812 191.496094 215.863281 193.042969 209.0625 193.46875 C 207.789062 193.550781 206.496094 193.589844 205.210938 193.589844 Z M 205.210938 193.589844 " fill-opacity="1" fill-rule="nonzero"/><path fill="#c27d46" d="M 237.058594 124.574219 C 236.992188 124.574219 236.921875 124.574219 236.851562 124.566406 C 236.019531 124.492188 235.226562 123.917969 234.832031 123.101562 C 234.5 122.414062 234.433594 121.566406 234.636719 120.71875 C 234.792969 120.074219 235.097656 119.425781 235.597656 118.675781 C 236.769531 116.90625 238.453125 115.382812 240.460938 114.265625 C 241.277344 113.8125 242.503906 113.253906 243.707031 113.652344 C 244.574219 113.941406 245.273438 114.714844 245.53125 115.667969 C 245.75 116.484375 245.652344 117.414062 245.257812 118.28125 C 245.113281 118.601562 244.9375 118.898438 244.734375 119.167969 C 244.492188 119.484375 244.085938 119.613281 243.703125 119.488281 C 243.328125 119.367188 243.078125 119.035156 243.066406 118.640625 C 243.0625 118.496094 243.042969 118.359375 243.007812 118.226562 C 242.992188 118.160156 242.972656 118.121094 242.960938 118.09375 C 242.957031 118.097656 242.953125 118.101562 242.945312 118.105469 C 242.871094 118.160156 242.800781 118.273438 242.726562 118.394531 C 242.429688 118.882812 242.15625 119.410156 241.890625 119.917969 C 241.652344 120.378906 241.40625 120.851562 241.136719 121.3125 C 240.414062 122.546875 239.675781 123.390625 238.8125 123.96875 C 238.210938 124.371094 237.621094 124.574219 237.058594 124.574219 Z M 242.84375 114.519531 C 242.320312 114.519531 241.703125 114.722656 240.949219 115.144531 C 239.078125 116.179688 237.519531 117.59375 236.433594 119.226562 C 236.003906 119.875 235.742188 120.425781 235.613281 120.953125 C 235.464844 121.578125 235.507812 122.183594 235.738281 122.664062 C 235.984375 123.167969 236.457031 123.523438 236.945312 123.570312 C 237.335938 123.605469 237.777344 123.457031 238.257812 123.136719 C 238.988281 122.648438 239.628906 121.90625 240.273438 120.808594 C 240.53125 120.371094 240.773438 119.90625 241.003906 119.457031 C 241.277344 118.933594 241.558594 118.394531 241.875 117.871094 C 241.996094 117.671875 242.128906 117.464844 242.347656 117.304688 C 242.65625 117.070312 243.050781 117.015625 243.371094 117.15625 C 243.667969 117.289062 243.875 117.5625 243.980469 117.96875 C 244.015625 118.105469 244.042969 118.246094 244.058594 118.386719 C 244.167969 118.226562 244.261719 118.050781 244.347656 117.867188 C 244.644531 117.207031 244.722656 116.519531 244.5625 115.925781 C 244.398438 115.304688 243.9375 114.78125 243.394531 114.601562 C 243.222656 114.546875 243.039062 114.515625 242.84375 114.515625 Z M 244.335938 118.863281 Z M 244.335938 118.863281 " fill-opacity="1" fill-rule="nonzero"/><path fill="#c27d46" d="M 234.28125 128.484375 C 233.8125 128.484375 233.355469 128.425781 232.914062 128.316406 C 231.507812 127.960938 230.328125 126.976562 229.839844 125.75 C 229.316406 124.4375 229.496094 122.871094 230.394531 120.960938 C 231.3125 119.003906 232.566406 117.25 234.128906 115.75 C 234.324219 115.558594 234.644531 115.5625 234.835938 115.765625 C 235.027344 115.964844 235.023438 116.28125 234.820312 116.472656 C 233.351562 117.886719 232.167969 119.539062 231.300781 121.386719 C 230.53125 123.03125 230.355469 124.335938 230.769531 125.378906 C 231.140625 126.3125 232.058594 127.066406 233.160156 127.34375 C 234.425781 127.664062 235.65625 127.359375 236.46875 127.046875 C 237.65625 126.589844 238.707031 125.832031 239.488281 125.226562 C 239.707031 125.058594 240.023438 125.097656 240.191406 125.316406 C 240.363281 125.535156 240.320312 125.851562 240.105469 126.019531 C 239.265625 126.667969 238.136719 127.476562 236.828125 127.980469 C 235.964844 128.316406 235.105469 128.484375 234.28125 128.484375 Z M 234.28125 128.484375 " fill-opacity="1" fill-rule="nonzero"/><path fill="#c27d46" d="M 232.066406 129.222656 C 230.765625 129.222656 229.128906 128.980469 227.640625 128.050781 C 225.980469 127.007812 224.90625 125.257812 224.835938 123.484375 C 224.824219 123.210938 225.042969 122.976562 225.316406 122.964844 C 225.59375 122.953125 225.828125 123.171875 225.839844 123.445312 C 225.894531 124.894531 226.789062 126.332031 228.175781 127.199219 C 229.738281 128.183594 231.53125 128.285156 232.757812 128.195312 C 235.214844 128.019531 237.632812 126.929688 239.386719 125.199219 C 239.585938 125.003906 239.902344 125.007812 240.097656 125.203125 C 240.292969 125.402344 240.289062 125.71875 240.089844 125.914062 C 238.167969 127.808594 235.519531 129.003906 232.828125 129.195312 C 232.589844 129.214844 232.335938 129.222656 232.066406 129.222656 Z M 232.066406 129.222656 " fill-opacity="1" fill-rule="nonzero"/><path fill="#c27d46" d="M 252.664062 126.085938 C 252.296875 126.085938 251.902344 125.988281 251.496094 125.796875 C 249.855469 125.023438 248.710938 123.125 248.582031 120.964844 C 248.46875 119.0625 249.042969 117.230469 249.640625 115.515625 L 249.789062 115.089844 C 250.320312 113.582031 250.871094 112.027344 250.960938 110.453125 C 251.03125 109.246094 250.769531 108.164062 250.242188 107.410156 C 249.933594 107.089844 249.597656 106.796875 249.230469 106.519531 C 248.558594 106.179688 247.707031 106.074219 246.820312 106.242188 C 245.734375 106.445312 244.742188 106.996094 243.910156 107.503906 C 241.308594 109.105469 238.960938 111.242188 237.121094 113.6875 C 236.957031 113.90625 236.640625 113.949219 236.421875 113.785156 C 236.199219 113.617188 236.15625 113.304688 236.320312 113.082031 C 238.261719 110.507812 240.640625 108.34375 243.386719 106.652344 C 244.292969 106.09375 245.390625 105.492188 246.636719 105.257812 C 246.75 105.238281 246.859375 105.21875 246.96875 105.207031 C 246.675781 105.070312 246.363281 104.945312 246.039062 104.820312 C 240.960938 102.875 236.355469 100.386719 232.351562 97.417969 C 227.566406 93.871094 223.078125 89.882812 219.015625 85.558594 C 218.828125 85.355469 218.835938 85.039062 219.039062 84.847656 C 219.238281 84.660156 219.554688 84.667969 219.746094 84.871094 C 223.769531 89.152344 228.210938 93.101562 232.949219 96.613281 C 236.878906 99.523438 241.40625 101.972656 246.398438 103.882812 C 247.710938 104.382812 248.820312 104.972656 249.753906 105.660156 C 249.925781 105.753906 250.089844 105.855469 250.246094 105.972656 C 250.546875 106.199219 250.8125 106.472656 251.035156 106.785156 C 252.386719 108.199219 253.394531 110.117188 254.195312 112.808594 C 255.464844 117.078125 255.605469 120.925781 254.609375 124.246094 C 254.425781 124.855469 254.15625 125.527344 253.519531 125.875 C 253.261719 126.011719 252.972656 126.082031 252.660156 126.082031 Z M 251.976562 109.863281 C 251.980469 110.074219 251.976562 110.292969 251.964844 110.511719 C 251.863281 112.226562 251.289062 113.851562 250.738281 115.421875 L 250.589844 115.847656 C 250.023438 117.464844 249.480469 119.191406 249.582031 120.902344 C 249.6875 122.707031 250.609375 124.269531 251.925781 124.890625 C 252.136719 124.988281 252.664062 125.199219 253.039062 124.996094 C 253.355469 124.820312 253.527344 124.375 253.648438 123.960938 C 254.585938 120.832031 254.449219 117.175781 253.234375 113.097656 C 252.863281 111.847656 252.449219 110.78125 251.976562 109.863281 Z M 251.976562 109.863281 " fill-opacity="1" fill-rule="nonzero"/><path fill="#c27d46" d="M 249.074219 106.316406 C 248.996094 106.316406 248.914062 106.300781 248.839844 106.257812 C 244.417969 103.878906 239.375 100.992188 235.429688 96.871094 C 231.195312 92.445312 228.867188 87.003906 229.035156 81.941406 C 229.046875 81.664062 229.28125 81.449219 229.554688 81.457031 C 229.832031 81.46875 230.050781 81.699219 230.039062 81.976562 C 229.878906 86.769531 232.105469 91.949219 236.152344 96.179688 C 239.996094 100.195312 244.960938 103.035156 249.3125 105.378906 C 249.558594 105.507812 249.648438 105.8125 249.515625 106.054688 C 249.425781 106.222656 249.253906 106.320312 249.074219 106.320312 Z M 249.074219 106.316406 " fill-opacity="1" fill-rule="nonzero"/><path fill="#c27d46" d="M 229.652344 152.097656 C 229.5 152.097656 229.351562 152.027344 229.253906 151.898438 C 229.085938 151.679688 229.128906 151.363281 229.351562 151.195312 C 231.742188 149.386719 233.089844 146.511719 234.394531 143.730469 C 234.519531 143.472656 234.636719 143.214844 234.761719 142.957031 C 235.039062 142.371094 235.3125 141.769531 235.582031 141.1875 C 236.730469 138.691406 237.914062 136.105469 239.628906 133.878906 C 242.105469 130.660156 245.371094 128.800781 248.585938 128.773438 C 249.242188 128.769531 249.898438 128.835938 250.527344 128.902344 C 251.414062 128.996094 252.253906 129.085938 253.082031 128.980469 C 253.328125 128.949219 253.578125 128.898438 253.839844 128.84375 C 254.527344 128.707031 255.234375 128.566406 255.972656 128.730469 C 256.984375 128.953125 257.738281 129.691406 258.367188 130.363281 C 260.632812 132.792969 262.203125 135.152344 263.175781 137.574219 C 264.335938 140.464844 264.625 143.496094 263.996094 146.113281 C 263.960938 146.277344 263.839844 146.410156 263.679688 146.464844 C 263.523438 146.523438 263.347656 146.496094 263.210938 146.398438 L 258.445312 142.863281 C 257.058594 141.839844 255.488281 140.675781 253.730469 140.3125 C 252.410156 140.042969 250.929688 140.199219 249.332031 140.785156 C 247.878906 141.316406 246.511719 142.128906 245.1875 142.914062 C 244.949219 143.050781 244.640625 142.972656 244.5 142.734375 C 244.359375 142.5 244.433594 142.191406 244.675781 142.046875 C 246.039062 141.242188 247.449219 140.40625 248.988281 139.84375 C 250.761719 139.195312 252.425781 139.023438 253.929688 139.332031 C 255.910156 139.734375 257.574219 140.96875 259.039062 142.058594 L 263.175781 145.121094 C 263.539062 142.882812 263.21875 140.367188 262.246094 137.945312 C 261.320312 135.640625 259.8125 133.382812 257.632812 131.046875 C 257.109375 130.484375 256.488281 129.867188 255.757812 129.707031 C 255.226562 129.589844 254.648438 129.703125 254.039062 129.824219 C 253.769531 129.878906 253.496094 129.933594 253.214844 129.96875 C 252.265625 130.09375 251.328125 129.992188 250.421875 129.898438 C 249.792969 129.828125 249.203125 129.765625 248.597656 129.773438 C 245.691406 129.796875 242.710938 131.515625 240.425781 134.484375 C 238.78125 136.625 237.617188 139.15625 236.496094 141.601562 C 236.226562 142.1875 235.949219 142.792969 235.667969 143.386719 C 235.546875 143.640625 235.425781 143.898438 235.304688 144.15625 C 233.949219 147.042969 232.546875 150.03125 229.960938 151.992188 C 229.867188 152.0625 229.761719 152.09375 229.65625 152.09375 Z M 229.652344 152.097656 " fill-opacity="1" fill-rule="nonzero"/><path fill="#c27d46" d="M 230.328125 152.023438 C 230.199219 152.023438 230.070312 151.972656 229.972656 151.871094 C 229.777344 151.675781 229.78125 151.359375 229.976562 151.164062 C 231.964844 149.210938 233.691406 147.003906 235.105469 144.605469 C 235.714844 143.570312 236.277344 142.480469 236.820312 141.425781 C 237.472656 140.167969 238.144531 138.863281 238.910156 137.628906 C 240.628906 134.855469 242.511719 132.988281 244.667969 131.921875 C 247.410156 130.558594 250.574219 130.691406 252.726562 132.257812 C 252.949219 132.417969 253 132.734375 252.835938 132.957031 C 252.675781 133.179688 252.359375 133.230469 252.136719 133.066406 C 250.28125 131.71875 247.523438 131.621094 245.113281 132.820312 C 243.128906 133.800781 241.378906 135.546875 239.761719 138.160156 C 239.015625 139.359375 238.355469 140.644531 237.710938 141.886719 C 237.160156 142.957031 236.589844 144.058594 235.96875 145.113281 C 234.507812 147.589844 232.726562 149.863281 230.679688 151.878906 C 230.582031 151.976562 230.453125 152.023438 230.328125 152.023438 Z M 230.328125 152.023438 " fill-opacity="1" fill-rule="nonzero"/><path fill="#c27d46" d="M 270.597656 164.371094 C 270.378906 164.371094 270.179688 164.226562 270.117188 164.007812 C 269.148438 160.5625 268.5625 156.984375 267.996094 153.523438 C 267.816406 152.445312 267.632812 151.328125 267.445312 150.234375 C 266.679688 145.863281 265.683594 141.234375 263.597656 136.984375 C 263.476562 136.734375 263.578125 136.4375 263.824219 136.316406 C 264.074219 136.195312 264.375 136.296875 264.496094 136.542969 C 266.636719 140.90625 267.652344 145.621094 268.429688 150.0625 C 268.621094 151.160156 268.804688 152.28125 268.984375 153.363281 C 269.546875 156.796875 270.128906 160.34375 271.082031 163.734375 C 271.15625 164 271 164.277344 270.734375 164.351562 C 270.6875 164.367188 270.640625 164.371094 270.597656 164.371094 Z M 270.597656 164.371094 " fill-opacity="1" fill-rule="nonzero"/><path fill="#c27d46" d="M 247.148438 153.464844 C 241.296875 153.464844 235.441406 153.015625 229.664062 152.121094 C 229.4375 152.082031 229.261719 151.898438 229.242188 151.667969 C 229.222656 151.4375 229.359375 151.222656 229.578125 151.148438 C 234.050781 149.628906 238.371094 147.0625 242.070312 143.726562 C 242.277344 143.542969 242.59375 143.558594 242.777344 143.765625 C 242.964844 143.972656 242.945312 144.289062 242.742188 144.472656 C 242.074219 145.070312 241.390625 145.648438 240.683594 146.199219 L 240.914062 146.09375 C 243.761719 144.746094 246.988281 143.222656 250.390625 142.898438 C 254.386719 142.519531 258.367188 143.792969 261.875 144.921875 C 263.410156 145.414062 265.027344 146.128906 265.378906 147.71875 C 265.589844 148.667969 265.222656 149.75 264.421875 150.539062 C 263.695312 151.253906 262.738281 151.648438 261.984375 151.914062 C 259.507812 152.785156 256.925781 153.085938 253.816406 153.269531 C 251.597656 153.398438 249.371094 153.464844 247.148438 153.464844 Z M 231.945312 151.4375 C 239.164062 152.414062 246.488281 152.695312 253.757812 152.269531 C 256.785156 152.089844 259.285156 151.800781 261.652344 150.96875 C 262.308594 150.738281 263.132812 150.398438 263.71875 149.824219 C 264.277344 149.273438 264.539062 148.550781 264.402344 147.933594 C 264.160156 146.839844 262.835938 146.277344 261.570312 145.875 C 258.152344 144.777344 254.277344 143.535156 250.488281 143.894531 C 247.257812 144.203125 244.25 145.625 241.34375 147 Z M 231.945312 151.4375 " fill-opacity="1" fill-rule="nonzero"/><path fill="#c27d46" d="M 102.109375 212.546875 C 101.960938 212.546875 101.816406 212.484375 101.71875 212.363281 C 101.546875 212.148438 101.578125 211.832031 101.792969 211.65625 C 109.890625 205.113281 118.269531 198.34375 125.515625 190.632812 C 133.597656 182.027344 139.304688 173.152344 142.484375 164.253906 C 142.578125 163.992188 142.863281 163.855469 143.125 163.949219 C 143.382812 164.042969 143.519531 164.328125 143.425781 164.589844 C 140.203125 173.621094 134.421875 182.613281 126.246094 191.316406 C 118.953125 199.082031 110.550781 205.871094 102.421875 212.4375 C 102.328125 212.511719 102.21875 212.546875 102.109375 212.546875 Z M 102.109375 212.546875 " fill-opacity="1" fill-rule="nonzero"/><path fill="#c27d46" d="M 146.738281 158.210938 C 146.652344 158.210938 146.5625 158.1875 146.484375 158.140625 C 146.246094 158 146.167969 157.695312 146.308594 157.453125 L 152.359375 147.242188 C 153.863281 144.703125 155.570312 141.820312 158.089844 139.824219 C 159.148438 138.984375 160.328125 138.316406 161.472656 137.671875 C 162.539062 137.066406 163.644531 136.445312 164.609375 135.695312 C 166.15625 134.5 167.472656 132.910156 168.746094 131.371094 C 170.730469 128.964844 172.785156 126.480469 175.789062 125.398438 C 179.554688 124.042969 183.636719 125.332031 186.773438 126.605469 C 187.320312 126.824219 187.878906 127.0625 188.417969 127.289062 C 191.179688 128.457031 194.039062 129.660156 197.003906 129.714844 C 197.199219 129.71875 197.390625 129.71875 197.585938 129.714844 C 198.207031 129.710938 198.847656 129.710938 199.492188 129.851562 C 200.558594 130.089844 201.371094 130.734375 201.671875 131.574219 C 201.898438 132.203125 201.648438 132.945312 201.34375 133.433594 C 200.992188 133.988281 200.507812 134.335938 200.007812 134.386719 C 199.734375 134.414062 199.488281 134.214844 199.460938 133.9375 C 199.429688 133.664062 199.632812 133.417969 199.90625 133.390625 C 200.085938 133.371094 200.320312 133.175781 200.496094 132.894531 C 200.710938 132.550781 200.808594 132.136719 200.726562 131.910156 C 200.511719 131.304688 199.835938 130.957031 199.273438 130.832031 C 198.742188 130.710938 198.183594 130.714844 197.59375 130.71875 C 197.390625 130.71875 197.1875 130.722656 196.984375 130.71875 C 193.828125 130.660156 190.878906 129.414062 188.027344 128.210938 C 187.492188 127.984375 186.941406 127.753906 186.398438 127.535156 C 183.425781 126.328125 179.570312 125.101562 176.128906 126.34375 C 173.382812 127.332031 171.503906 129.605469 169.515625 132.007812 C 168.210938 133.589844 166.859375 135.226562 165.222656 136.488281 C 164.195312 137.285156 163.0625 137.925781 161.964844 138.546875 C 160.855469 139.171875 159.707031 139.820312 158.707031 140.613281 C 156.335938 142.492188 154.75 145.167969 153.21875 147.757812 L 147.167969 157.96875 C 147.074219 158.125 146.90625 158.214844 146.738281 158.214844 Z M 146.738281 158.210938 " fill-opacity="1" fill-rule="nonzero"/><path fill="#c27d46" d="M 205.804688 136.375 C 205.773438 136.375 205.738281 136.371094 205.707031 136.367188 C 205.492188 136.324219 205.316406 136.144531 205.292969 135.921875 C 205.273438 135.703125 205.386719 135.492188 205.59375 135.40625 C 206.5 135.03125 207.421875 134.664062 208.308594 134.308594 C 208.472656 134.246094 208.808594 134.109375 208.863281 133.953125 C 208.917969 133.796875 208.742188 133.484375 208.65625 133.335938 C 208.351562 132.796875 208.089844 132.367188 207.695312 132.160156 C 207.167969 131.878906 206.4375 132.050781 205.859375 132.234375 C 204.972656 132.507812 204.089844 132.871094 203.234375 133.222656 C 202.320312 133.597656 201.378906 133.984375 200.40625 134.28125 C 200.140625 134.359375 199.859375 134.210938 199.78125 133.945312 C 199.699219 133.683594 199.847656 133.402344 200.113281 133.320312 C 201.039062 133.039062 201.964844 132.664062 202.855469 132.296875 C 203.726562 131.9375 204.632812 131.566406 205.558594 131.277344 C 206.324219 131.039062 207.3125 130.820312 208.164062 131.273438 C 208.851562 131.636719 209.246094 132.335938 209.53125 132.84375 C 209.699219 133.144531 210.011719 133.699219 209.8125 134.285156 C 209.605469 134.871094 209.003906 135.113281 208.683594 135.242188 C 207.828125 135.582031 206.949219 135.933594 206.082031 136.289062 C 206 136.34375 205.90625 136.375 205.804688 136.375 Z M 205.804688 136.375 " fill-opacity="1" fill-rule="nonzero"/><path fill="#c27d46" d="M 209.5 134.214844 C 209.296875 134.214844 209.105469 134.089844 209.03125 133.890625 C 208.933594 133.632812 209.0625 133.339844 209.320312 133.246094 C 213.195312 131.773438 217.203125 130.253906 220.78125 128.066406 C 221.019531 127.921875 221.269531 127.75 221.304688 127.578125 C 221.339844 127.414062 221.125 127.183594 220.878906 127.125 C 220.527344 127.039062 220.089844 127.160156 219.707031 127.265625 C 216.710938 128.101562 213.316406 129.046875 210.105469 130.207031 C 209.632812 130.378906 209.214844 130.542969 208.9375 130.824219 C 208.722656 131.039062 208.582031 131.40625 208.714844 131.648438 C 208.847656 131.890625 208.761719 132.195312 208.519531 132.332031 C 208.277344 132.464844 207.972656 132.375 207.839844 132.132812 C 207.5 131.519531 207.660156 130.691406 208.226562 130.117188 C 208.6875 129.652344 209.3125 129.425781 209.769531 129.261719 C 213.011719 128.089844 216.429688 127.136719 219.4375 126.300781 C 219.914062 126.164062 220.511719 126 221.117188 126.148438 C 221.804688 126.316406 222.449219 126.988281 222.289062 127.777344 C 222.164062 128.398438 221.605469 128.738281 221.304688 128.921875 C 217.644531 131.15625 213.597656 132.695312 209.679688 134.179688 C 209.621094 134.203125 209.5625 134.214844 209.503906 134.214844 Z M 209.5 134.214844 " fill-opacity="1" fill-rule="nonzero"/><path fill="#c27d46" d="M 222.121094 128.390625 C 222.101562 128.390625 222.082031 128.390625 222.0625 128.390625 C 221.789062 128.386719 221.5625 128.160156 221.566406 127.882812 C 221.570312 127.609375 221.792969 127.386719 222.070312 127.386719 C 222.085938 127.386719 222.101562 127.386719 222.117188 127.386719 C 222.671875 127.386719 223.214844 127.296875 223.738281 127.121094 C 223.863281 127.082031 223.914062 127.050781 223.933594 127.035156 C 223.933594 127.003906 223.914062 126.921875 223.816406 126.738281 C 223.628906 126.378906 223.433594 126.023438 223.234375 125.675781 C 223.125 125.492188 223.070312 125.441406 223.046875 125.421875 C 223.027344 125.425781 222.972656 125.445312 222.867188 125.519531 C 222.386719 125.855469 222.019531 126.347656 221.839844 126.902344 C 221.753906 127.164062 221.46875 127.308594 221.207031 127.222656 C 220.945312 127.136719 220.800781 126.855469 220.886719 126.59375 C 221.132812 125.828125 221.632812 125.15625 222.292969 124.699219 C 222.503906 124.554688 222.824219 124.367188 223.210938 124.433594 C 223.71875 124.515625 223.976562 124.960938 224.097656 125.175781 C 224.304688 125.535156 224.507812 125.902344 224.703125 126.273438 C 224.816406 126.488281 225.085938 126.996094 224.828125 127.492188 C 224.65625 127.835938 224.324219 127.984375 224.054688 128.074219 C 223.429688 128.285156 222.777344 128.390625 222.117188 128.390625 Z M 222.121094 128.390625 " fill-opacity="1" fill-rule="nonzero"/><path fill="#c27d46" d="M 175.835938 149.074219 C 175.648438 149.074219 175.464844 148.964844 175.382812 148.785156 C 175.265625 148.53125 175.375 148.234375 175.625 148.117188 C 180.4375 145.871094 184.910156 142.964844 188.917969 139.480469 C 188.347656 138.347656 188.15625 137.019531 188.386719 135.773438 C 188.4375 135.5 188.703125 135.324219 188.972656 135.371094 C 189.242188 135.421875 189.421875 135.683594 189.371094 135.957031 C 189.160156 137.101562 189.382812 138.335938 189.980469 139.335938 C 190.105469 139.542969 190.0625 139.808594 189.882812 139.96875 C 185.722656 143.632812 181.070312 146.683594 176.046875 149.027344 C 175.976562 149.058594 175.90625 149.074219 175.835938 149.074219 Z M 175.835938 149.074219 " fill-opacity="1" fill-rule="nonzero"/><path fill="#c27d46" d="M 201.78125 102.8125 C 202.628906 100.984375 202.550781 98.75 201.574219 96.988281 C 201.933594 99.019531 201.503906 101.183594 200.390625 102.921875 C 200.992188 100.960938 200.742188 98.753906 199.71875 96.972656 C 200.246094 98.890625 199.90625 101.027344 198.8125 102.6875 C 199.277344 100.6875 199.136719 98.546875 198.410156 96.625 C 198.335938 98.589844 198.265625 100.558594 198.191406 102.523438 C 197.539062 100.429688 197.300781 98.207031 197.488281 96.023438 C 196.335938 98.027344 196.210938 100.589844 197.164062 102.695312 C 195.988281 100.753906 195.425781 98.441406 195.582031 96.175781 C 194.539062 98.3125 194.789062 101.015625 196.203125 102.925781 C 194.390625 101.082031 193.316406 98.523438 193.265625 95.9375 C 192.574219 98.339844 193.285156 101.09375 195.054688 102.863281 C 192.75 101.074219 191.261719 98.269531 191.078125 95.359375 C 190.660156 98.121094 191.714844 101.070312 193.796875 102.9375 C 191.070312 101.34375 188.992188 98.679688 188.117188 95.648438 C 188.199219 98.476562 189.535156 101.242188 191.699219 103.066406 C 190.421875 101.933594 189.140625 100.792969 188.074219 99.464844 C 187.007812 98.132812 186.15625 96.589844 185.863281 94.910156 C 185.960938 98.328125 187.492188 101.6875 190.007812 104.003906 C 186.648438 102.15625 184.113281 98.875 183.167969 95.160156 C 183.109375 96.921875 183.691406 98.660156 184.550781 100.203125 C 185.40625 101.746094 186.53125 103.117188 187.652344 104.480469 C 186.25 103.277344 184.851562 102.050781 183.726562 100.582031 C 182.605469 99.117188 181.761719 97.382812 181.628906 95.539062 C 181.632812 98.828125 182.9375 102.097656 185.199219 104.492188 C 181.792969 102.226562 179.878906 98.324219 178.460938 94.488281 C 178.902344 98.234375 180.816406 101.785156 183.707031 104.210938 C 181.765625 102.824219 180.109375 101.046875 178.855469 99.019531 C 179.703125 101.484375 181.007812 103.796875 182.683594 105.800781 C 179.398438 103.339844 176.9375 99.800781 175.78125 95.863281 C 176.246094 100.054688 178.296875 104.050781 181.671875 106.84375 C 178.238281 105.367188 175.25 102.871094 173.183594 99.753906 C 174.214844 102.0625 175.824219 104.113281 177.820312 105.664062 C 175.03125 104.496094 172.453125 102.820312 170.25 100.746094 C 171.488281 102.976562 173.640625 104.683594 176.09375 105.378906 C 173.332031 105.070312 170.683594 103.832031 168.671875 101.914062 C 169.867188 103.453125 171.519531 104.628906 173.363281 105.253906 C 170.390625 104.496094 167.578125 103.109375 165.160156 101.214844 C 164.351562 100.578125 163.578125 99.882812 162.671875 99.390625 C 161.765625 98.898438 160.6875 98.625 159.699219 98.914062 C 161.371094 99.328125 162.753906 100.484375 163.96875 101.707031 C 165.183594 102.929688 166.3125 104.265625 167.761719 105.199219 C 170.140625 106.730469 173.101562 107.011719 175.929688 107.058594 C 173.167969 107.46875 170.28125 106.960938 167.824219 105.632812 C 170.285156 107.3125 173.367188 108.0625 176.324219 107.703125 C 174.042969 108.640625 171.441406 108.777344 169.082031 108.074219 C 170.546875 108.617188 172.027344 109.164062 173.578125 109.359375 C 175.128906 109.550781 176.777344 109.363281 178.09375 108.527344 C 176.613281 110.015625 174.40625 110.75 172.328125 110.441406 C 175.113281 111.128906 178.195312 110.46875 180.457031 108.707031 C 179.320312 110.65625 177.171875 111.984375 174.917969 112.117188 C 177.40625 111.878906 179.804688 110.785156 181.40625 108.988281 C 180.839844 110.632812 179.804688 112.109375 178.457031 113.203125 C 180.46875 112.546875 182.226562 111.136719 183.304688 109.3125 C 182.699219 111.417969 181.40625 113.320312 179.671875 114.65625 C 181.761719 113.339844 183.542969 111.539062 184.835938 109.433594 C 184.144531 111.414062 183.117188 113.273438 181.808594 114.914062 C 183.648438 113.296875 185.210938 111.359375 186.402344 109.21875 C 186.058594 111.480469 184.988281 113.625 183.382812 115.253906 C 185.394531 113.6875 187.023438 111.636719 188.085938 109.320312 C 187.828125 111.292969 187.054688 113.199219 185.863281 114.796875 C 187.574219 113.003906 188.929688 110.875 189.824219 108.5625 C 189.738281 110.792969 188.929688 112.988281 187.554688 114.742188 C 189.277344 112.789062 190.601562 110.496094 191.433594 108.03125 C 191.429688 110.554688 190.476562 113.066406 188.804688 114.957031 C 190.757812 113.132812 192.019531 110.59375 192.300781 107.9375 C 192.957031 109.738281 192.648438 111.855469 191.515625 113.398438 C 192.796875 111.941406 193.632812 110.101562 193.886719 108.179688 C 194.640625 109.738281 194.515625 111.691406 193.566406 113.144531 C 194.867188 111.648438 195.515625 109.605469 195.320312 107.632812 C 196.058594 108.75 196.5625 110.027344 196.785156 111.347656 C 196.773438 110.074219 196.535156 108.796875 196.082031 107.601562 C 197.007812 108.699219 197.660156 110.019531 197.96875 111.421875 C 198.140625 109.90625 197.894531 108.347656 197.261719 106.964844 C 198.242188 108.03125 199.222656 109.097656 200.203125 110.164062 C 199.945312 108.714844 199.265625 107.34375 198.273438 106.257812 C 199.542969 107.152344 200.585938 108.363281 201.28125 109.753906 C 200.609375 108.359375 199.933594 106.960938 199.261719 105.5625 C 200.878906 106.539062 202.183594 108.03125 202.941406 109.761719 C 202.632812 108.128906 201.75 106.609375 200.484375 105.53125 C 201.953125 106.058594 203.222656 107.125 203.992188 108.484375 C 203.699219 107.175781 202.976562 105.96875 201.96875 105.089844 C 203.183594 105.320312 204.25 106.214844 204.6875 107.371094 C 204.550781 105.871094 203.550781 104.480469 202.171875 103.878906 C 203.828125 104.960938 205.929688 105.488281 207.820312 104.90625 C 209.707031 104.328125 211.242188 102.472656 211.097656 100.503906 C 209.578125 103.480469 205.992188 105.25 202.707031 104.632812 C 204.722656 104.207031 206.8125 103.699219 208.375 102.355469 C 209.9375 101.011719 210.753906 98.574219 209.648438 96.835938 C 209.539062 98.324219 209.183594 99.855469 208.246094 101.015625 C 207.308594 102.175781 205.679688 102.867188 204.277344 102.367188 C 203.800781 102.199219 203.363281 101.902344 202.863281 101.820312 C 201.789062 101.640625 200.839844 102.472656 200.066406 103.238281 C 200.625 103.144531 201.183594 103.050781 201.777344 102.808594 Z M 201.78125 102.8125 " fill-opacity="1" fill-rule="nonzero"/><path fill="#c27d46" d="M 202.441406 103.929688 C 204.105469 104.640625 206.078125 104.59375 207.707031 103.8125 C 209.339844 103.03125 210.609375 101.523438 211.101562 99.78125 C 211.617188 101.21875 211.234375 102.902344 210.265625 104.085938 C 209.296875 105.269531 207.804688 105.960938 206.285156 106.117188 C 204.761719 106.269531 203.21875 105.921875 201.832031 105.28125 C 201.457031 105.109375 201.054688 104.871094 200.96875 104.46875 C 200.886719 104.066406 201.464844 103.515625 202.441406 103.929688 Z M 202.441406 103.929688 " fill-opacity="1" fill-rule="nonzero"/><path fill="#c27d46" d="M 159.96875 96.179688 C 163.269531 87.53125 170.847656 80.636719 179.769531 78.175781 C 188.6875 75.714844 198.730469 77.742188 205.996094 83.472656 C 206.878906 84.167969 207.855469 84.960938 208.972656 84.855469 C 209.914062 84.765625 210.675781 84.050781 211.191406 83.261719 C 212.480469 81.285156 212.609375 78.605469 211.515625 76.515625 C 210.15625 73.921875 207.285156 72.519531 204.503906 71.601562 C 195.148438 68.523438 184.507812 69.191406 175.863281 73.914062 C 167.21875 78.636719 160.816406 87.484375 159.972656 96.179688 Z M 159.96875 96.179688 " fill-opacity="1" fill-rule="nonzero"/><path fill="#c27d46" d="M 241.53125 101.324219 C 242.890625 102.203125 244.433594 102.945312 245.707031 103.945312 C 244.921875 103.027344 244.066406 102.175781 243.152344 101.390625 C 245.035156 101.996094 246.730469 103.179688 247.949219 104.742188 C 247.382812 103.625 246.621094 102.609375 245.710938 101.753906 C 247.832031 102.636719 249.609375 104.332031 250.59375 106.40625 C 250.332031 104.8125 249.621094 103.296875 248.5625 102.074219 C 250.289062 103.011719 251.550781 104.753906 251.902344 106.683594 C 251.742188 104.996094 251.113281 103.351562 250.101562 101.992188 C 251.664062 103.191406 252.835938 104.894531 253.40625 106.78125 C 253.25 105.035156 252.507812 103.34375 251.320312 102.046875 C 253.289062 103.355469 254.820312 105.308594 255.621094 107.53125 C 255.496094 105.578125 254.644531 103.679688 253.269531 102.289062 C 255.199219 103.273438 256.730469 105.011719 257.46875 107.050781 C 257.042969 105.328125 256.273438 103.6875 255.226562 102.257812 C 256.40625 103.632812 257.859375 104.769531 259.476562 105.589844 C 258.496094 104.894531 257.652344 103.996094 257.019531 102.976562 C 257.773438 104.242188 259.4375 104.789062 260.878906 104.480469 C 262.320312 104.167969 263.523438 103.128906 264.316406 101.882812 C 263.03125 102.703125 261.464844 103.078125 259.949219 102.933594 C 262.234375 102.527344 264.160156 100.570312 264.535156 98.28125 C 263.710938 100.015625 262.15625 101.390625 260.328125 101.988281 C 262.34375 100.902344 263.644531 98.609375 263.542969 96.324219 C 262.734375 98.574219 261.046875 100.496094 258.917969 101.585938 C 260.949219 100.460938 262.242188 98.125 262.113281 95.808594 C 261.644531 96.800781 261.171875 97.804688 260.496094 98.667969 C 259.824219 99.535156 258.921875 100.269531 257.859375 100.539062 C 258.441406 100.253906 258.960938 99.835938 259.492188 99.246094 C 260.621094 97.976562 261.085938 96.144531 260.695312 94.488281 C 260.355469 96.632812 259.105469 98.621094 257.320312 99.855469 C 258.902344 98.386719 259.722656 96.136719 259.457031 93.996094 C 259.382812 96.078125 258.09375 98.074219 256.226562 99 C 257.347656 97.5 257.863281 95.558594 257.644531 93.699219 C 257.535156 95.519531 256.425781 97.246094 254.816406 98.105469 C 256.039062 96.410156 256.5 94.1875 256.046875 92.148438 C 255.925781 93.679688 255.6875 95.425781 254.410156 96.277344 C 253.464844 96.910156 252.234375 96.84375 251.097656 96.800781 C 246.910156 96.644531 242.703125 97.117188 238.554688 98.214844 L 237.609375 98.363281 C 238.273438 98.71875 238.132812 99.132812 241.53125 101.324219 Z M 241.53125 101.324219 " fill-opacity="1" fill-rule="nonzero"/><path fill="#c27d46" d="M 244.898438 160.1875 C 243.902344 162.109375 241.976562 163.628906 239.648438 164.332031 C 239.085938 164.5 238.402344 164.609375 237.898438 164.296875 C 237.496094 164.046875 237.335938 163.582031 237.386719 163.171875 C 237.4375 162.761719 237.65625 162.390625 237.882812 162.03125 C 239.511719 159.429688 241.667969 156.859375 244.9375 155.851562 C 245.324219 155.734375 245.75 155.636719 246.15625 155.746094 C 246.714844 155.894531 247.074219 156.40625 247.128906 156.898438 C 247.179688 157.390625 246.984375 157.863281 246.757812 158.304688 C 245.867188 160.035156 244.429688 161.539062 242.628906 162.625 C 243.234375 161.609375 244.011719 160.679688 244.898438 160.1875 Z M 244.898438 160.1875 " fill-opacity="1" fill-rule="nonzero"/><path fill="#c27d46" d="M 229.671875 83.269531 C 229.503906 84.871094 229.789062 86.515625 230.484375 87.964844 C 230.332031 85.5625 231.324219 83.191406 232.828125 81.316406 C 234.335938 79.441406 236.324219 78.011719 238.382812 76.773438 C 240.535156 75.476562 242.894531 74.335938 245.40625 74.296875 C 247.917969 74.261719 250.597656 75.601562 251.421875 77.972656 C 250.710938 76.148438 249.988281 74.296875 248.828125 72.714844 C 247.667969 71.136719 246.007812 69.824219 244.070312 69.519531 C 242.605469 69.289062 241.121094 69.636719 239.679688 69.984375 C 237.914062 70.410156 236.148438 70.835938 234.378906 71.257812 C 233.261719 71.527344 232.101562 71.816406 231.207031 72.542969 C 229.945312 73.558594 229.445312 75.242188 229.195312 76.839844 C 228.644531 80.347656 228.972656 83.992188 230.144531 87.347656 C 230.277344 86.855469 230.40625 86.363281 229.671875 83.269531 Z M 229.671875 83.269531 " fill-opacity="1" fill-rule="nonzero"/><path fill="#c27d46" d="M 192.78125 131.464844 C 193.742188 132.734375 195.074219 133.726562 196.566406 134.28125 C 198.0625 134.839844 199.714844 134.957031 201.277344 134.621094 C 200.019531 133.386719 198.191406 132.988281 196.585938 132.269531 C 195.949219 131.988281 195.335938 131.644531 194.671875 131.425781 C 194.007812 131.207031 193.277344 131.121094 192.78125 131.460938 Z M 192.78125 131.464844 " fill-opacity="1" fill-rule="nonzero"/><path fill="#c27d46" d="M 188.679688 136.15625 C 188.558594 135.144531 189.070312 134.171875 189.636719 133.324219 C 190.007812 132.769531 190.417969 132.226562 190.953125 131.820312 C 191.484375 131.414062 192.15625 131.15625 192.820312 131.234375 C 192.175781 131.417969 191.605469 131.820312 191.152344 132.3125 C 190.695312 132.808594 190.351562 133.394531 190.058594 133.996094 C 189.671875 134.78125 189.367188 135.613281 189.246094 136.476562 C 189.128906 137.34375 189.207031 138.25 189.566406 139.046875 C 188.84375 138.234375 188.789062 137.089844 188.675781 136.15625 Z M 188.679688 136.15625 " fill-opacity="1" fill-rule="nonzero"/><g fill="#c27d46" fill-opacity="1"><g transform="translate(118.567897, 300.537809)"><g><path d="M 15.796875 0 L 12.921875 0 L 11.53125 -8.15625 L 9.21875 0 L 6.65625 0 L 4.34375 -8.15625 L 2.953125 0 L 0.09375 0 L 2.375 -11.828125 L 5.484375 -11.828125 L 7.953125 -3.53125 L 10.40625 -11.828125 L 13.5 -11.828125 Z M 15.796875 0 "/></g></g></g><g fill="#c27d46" fill-opacity="1"><g transform="translate(148.370148, 300.537809)"><g><path d="M 7.484375 -4.515625 L 5.984375 -8.734375 L 4.484375 -4.515625 Z M 11.890625 0 L 9.09375 0 L 8.25 -2.375 L 3.734375 -2.375 L 2.890625 0 L 0.09375 0 L 4.890625 -11.828125 L 7.09375 -11.828125 Z M 11.890625 0 "/></g></g></g><g fill="#c27d46" fill-opacity="1"><g transform="translate(174.276314, 300.537809)"><g><path d="M 3.65625 -5.28125 L 3.65625 0 L 1.046875 0 L 1.046875 -11.828125 L 3.65625 -11.828125 L 3.65625 -6.53125 L 7.390625 -11.828125 L 10.734375 -11.828125 L 6.1875 -5.90625 L 10.90625 0 L 7.390625 0 Z M 3.65625 -5.28125 "/></g></g></g><g fill="#c27d46" fill-opacity="1"><g transform="translate(198.930175, 300.537809)"><g><path d="M 7.890625 -2.359375 L 7.890625 0 L 1.046875 0 L 1.046875 -11.828125 L 7.890625 -11.828125 L 7.890625 -9.453125 L 3.65625 -9.453125 L 3.65625 -7.109375 L 7.71875 -7.109375 L 7.71875 -4.75 L 3.65625 -4.75 L 3.65625 -2.359375 Z M 7.890625 -2.359375 "/></g></g></g><g fill="#c27d46" fill-opacity="1"><g transform="translate(221.79252, 300.537809)"><g><path d="M 7.953125 -11.828125 L 10.5625 -11.828125 L 10.5625 -4.609375 C 10.5625 -3.035156 10.128906 -1.84375 9.265625 -1.03125 C 8.410156 -0.226562 7.210938 0.171875 5.671875 0.171875 C 4.128906 0.171875 2.925781 -0.226562 2.0625 -1.03125 C 1.207031 -1.84375 0.78125 -3.035156 0.78125 -4.609375 L 0.78125 -11.828125 L 3.390625 -11.828125 L 3.390625 -4.984375 C 3.390625 -4.179688 3.546875 -3.554688 3.859375 -3.109375 C 4.179688 -2.660156 4.785156 -2.4375 5.671875 -2.4375 C 6.566406 -2.4375 7.171875 -2.660156 7.484375 -3.109375 C 7.796875 -3.554688 7.953125 -4.179688 7.953125 -4.984375 Z M 7.953125 -11.828125 "/></g></g></g><g fill="#c27d46" fill-opacity="1"><g transform="translate(247.055137, 300.537809)"><g><path d="M 3.65625 -4.21875 L 3.65625 0 L 1.046875 0 L 1.046875 -11.828125 L 5.484375 -11.828125 C 6.117188 -11.828125 6.710938 -11.664062 7.265625 -11.34375 C 7.816406 -11.03125 8.257812 -10.585938 8.59375 -10.015625 C 8.925781 -9.453125 9.09375 -8.789062 9.09375 -8.03125 C 9.09375 -7.226562 8.925781 -6.539062 8.59375 -5.96875 C 8.257812 -5.40625 7.816406 -4.972656 7.265625 -4.671875 C 6.710938 -4.367188 6.117188 -4.21875 5.484375 -4.21875 Z M 5.046875 -9.78125 L 3.65625 -9.78125 L 3.65625 -6.28125 L 5.046875 -6.28125 C 5.429688 -6.28125 5.785156 -6.429688 6.109375 -6.734375 C 6.441406 -7.035156 6.609375 -7.46875 6.609375 -8.03125 C 6.609375 -8.582031 6.441406 -9.007812 6.109375 -9.3125 C 5.785156 -9.625 5.429688 -9.78125 5.046875 -9.78125 Z M 5.046875 -9.78125 "/></g></g></g><g fill="#c27d46" fill-opacity="1"><g transform="translate(97.562001, 280.275827)"><g><path d="M 6.953125 -9.5625 C 6.328125 -9.5625 5.753906 -9.394531 5.234375 -9.0625 C 4.710938 -8.726562 4.296875 -8.28125 3.984375 -7.71875 C 3.671875 -7.164062 3.515625 -6.550781 3.515625 -5.875 C 3.515625 -5.21875 3.671875 -4.609375 3.984375 -4.046875 C 4.296875 -3.484375 4.710938 -3.03125 5.234375 -2.6875 C 5.753906 -2.351562 6.328125 -2.1875 6.953125 -2.1875 C 7.335938 -2.1875 7.738281 -2.238281 8.15625 -2.34375 C 8.582031 -2.457031 8.976562 -2.671875 9.34375 -2.984375 C 9.707031 -3.296875 9.992188 -3.75 10.203125 -4.34375 L 7.203125 -4.34375 L 7.203125 -6.3125 L 13.03125 -6.3125 L 13.03125 -5.90625 C 13.03125 -5.070312 12.875 -4.285156 12.5625 -3.546875 C 12.25 -2.816406 11.8125 -2.171875 11.25 -1.609375 C 10.695312 -1.046875 10.050781 -0.609375 9.3125 -0.296875 C 8.582031 0.015625 7.796875 0.171875 6.953125 0.171875 C 6.117188 0.171875 5.332031 0.015625 4.59375 -0.296875 C 3.863281 -0.617188 3.21875 -1.054688 2.65625 -1.609375 C 2.101562 -2.171875 1.664062 -2.816406 1.34375 -3.546875 C 1.03125 -4.285156 0.875 -5.070312 0.875 -5.90625 C 0.875 -6.75 1.03125 -7.535156 1.34375 -8.265625 C 1.664062 -9.003906 2.101562 -9.648438 2.65625 -10.203125 C 3.21875 -10.765625 3.863281 -11.203125 4.59375 -11.515625 C 5.332031 -11.835938 6.117188 -12 6.953125 -12 C 7.828125 -12 8.648438 -11.820312 9.421875 -11.46875 C 10.203125 -11.113281 10.878906 -10.625 11.453125 -10 C 12.035156 -9.382812 12.460938 -8.664062 12.734375 -7.84375 L 9.859375 -7.84375 C 9.566406 -8.46875 9.15625 -8.910156 8.625 -9.171875 C 8.09375 -9.429688 7.535156 -9.5625 6.953125 -9.5625 Z M 6.953125 -9.5625 "/></g></g></g><g fill="#c27d46" fill-opacity="1"><g transform="translate(125.120534, 280.275827)"><g><path d="M 7.890625 -2.359375 L 7.890625 0 L 1.046875 0 L 1.046875 -11.828125 L 7.890625 -11.828125 L 7.890625 -9.453125 L 3.65625 -9.453125 L 3.65625 -7.109375 L 7.71875 -7.109375 L 7.71875 -4.75 L 3.65625 -4.75 L 3.65625 -2.359375 Z M 7.890625 -2.359375 "/></g></g></g><g fill="#c27d46" fill-opacity="1"><g transform="translate(147.982883, 280.275827)"><g><path d="M 6.0625 -9.453125 L 6.0625 0 L 3.453125 0 L 3.453125 -9.453125 L 0.09375 -9.453125 L 0.09375 -11.828125 L 9.4375 -11.828125 L 9.4375 -9.453125 Z M 6.0625 -9.453125 "/></g></g></g><g fill="#c27d46" fill-opacity="1"><g transform="translate(171.436614, 280.275827)"><g/></g></g><g fill="#c27d46" fill-opacity="1"><g transform="translate(189.707149, 280.275827)"><g><path d="M 4.5 0 L 4.5 -5.65625 L 0.140625 -11.828125 L 3.25 -11.828125 L 5.8125 -7.734375 L 8.359375 -11.828125 L 11.484375 -11.828125 L 7.109375 -5.65625 L 7.109375 0 Z M 4.5 0 "/></g></g></g><g fill="#c27d46" fill-opacity="1"><g transform="translate(215.248052, 280.275827)"><g><path d="M 10.171875 -5.9375 C 10.171875 -6.550781 10.007812 -7.117188 9.6875 -7.640625 C 9.363281 -8.171875 8.9375 -8.597656 8.40625 -8.921875 C 7.875 -9.242188 7.304688 -9.40625 6.703125 -9.40625 C 6.097656 -9.40625 5.523438 -9.242188 4.984375 -8.921875 C 4.453125 -8.597656 4.023438 -8.171875 3.703125 -7.640625 C 3.378906 -7.117188 3.21875 -6.550781 3.21875 -5.9375 C 3.21875 -5.332031 3.378906 -4.757812 3.703125 -4.21875 C 4.023438 -3.6875 4.453125 -3.253906 4.984375 -2.921875 C 5.523438 -2.597656 6.097656 -2.4375 6.703125 -2.4375 C 7.304688 -2.4375 7.875 -2.597656 8.40625 -2.921875 C 8.9375 -3.253906 9.363281 -3.6875 9.6875 -4.21875 C 10.007812 -4.757812 10.171875 -5.332031 10.171875 -5.9375 Z M 12.78125 -5.90625 C 12.78125 -5.101562 12.617188 -4.332031 12.296875 -3.59375 C 11.972656 -2.851562 11.53125 -2.203125 10.96875 -1.640625 C 10.40625 -1.078125 9.757812 -0.632812 9.03125 -0.3125 C 8.300781 0.0078125 7.523438 0.171875 6.703125 0.171875 C 5.890625 0.171875 5.113281 0.0078125 4.375 -0.3125 C 3.632812 -0.632812 2.984375 -1.078125 2.421875 -1.640625 C 1.859375 -2.203125 1.414062 -2.851562 1.09375 -3.59375 C 0.769531 -4.332031 0.609375 -5.101562 0.609375 -5.90625 C 0.609375 -6.726562 0.769531 -7.503906 1.09375 -8.234375 C 1.414062 -8.972656 1.859375 -9.625 2.421875 -10.1875 C 2.984375 -10.75 3.632812 -11.191406 4.375 -11.515625 C 5.113281 -11.835938 5.890625 -12 6.703125 -12 C 7.523438 -12 8.300781 -11.835938 9.03125 -11.515625 C 9.757812 -11.191406 10.40625 -10.75 10.96875 -10.1875 C 11.53125 -9.625 11.972656 -8.972656 12.296875 -8.234375 C 12.617188 -7.503906 12.78125 -6.726562 12.78125 -5.90625 Z M 12.78125 -5.90625 "/></g></g></g><g fill="#c27d46" fill-opacity="1"><g transform="translate(242.563065, 280.275827)"><g><path d="M 7.953125 -11.828125 L 10.5625 -11.828125 L 10.5625 -4.609375 C 10.5625 -3.035156 10.128906 -1.84375 9.265625 -1.03125 C 8.410156 -0.226562 7.210938 0.171875 5.671875 0.171875 C 4.128906 0.171875 2.925781 -0.226562 2.0625 -1.03125 C 1.207031 -1.84375 0.78125 -3.035156 0.78125 -4.609375 L 0.78125 -11.828125 L 3.390625 -11.828125 L 3.390625 -4.984375 C 3.390625 -4.179688 3.546875 -3.554688 3.859375 -3.109375 C 4.179688 -2.660156 4.785156 -2.4375 5.671875 -2.4375 C 6.566406 -2.4375 7.171875 -2.660156 7.484375 -3.109375 C 7.796875 -3.554688 7.953125 -4.179688 7.953125 -4.984375 Z M 7.953125 -11.828125 "/></g></g></g><g fill="#c27d46" fill-opacity="1"><g transform="translate(267.825682, 280.275827)"><g><path d="M 3.65625 -4.21875 L 3.65625 0 L 1.046875 0 L 1.046875 -11.828125 L 5.484375 -11.828125 C 6.117188 -11.828125 6.710938 -11.664062 7.265625 -11.34375 C 7.816406 -11.03125 8.257812 -10.585938 8.59375 -10.015625 C 8.925781 -9.453125 9.09375 -8.789062 9.09375 -8.03125 C 9.09375 -7.375 8.96875 -6.789062 8.71875 -6.28125 C 8.476562 -5.769531 8.15625 -5.347656 7.75 -5.015625 C 7.34375 -4.691406 6.894531 -4.46875 6.40625 -4.34375 L 9.796875 0 L 6.484375 0 L 3.671875 -4.21875 Z M 5.046875 -9.78125 L 3.65625 -9.78125 L 3.65625 -6.28125 L 5.046875 -6.28125 C 5.429688 -6.28125 5.785156 -6.429688 6.109375 -6.734375 C 6.441406 -7.035156 6.609375 -7.46875 6.609375 -8.03125 C 6.609375 -8.582031 6.441406 -9.007812 6.109375 -9.3125 C 5.785156 -9.625 5.429688 -9.78125 5.046875 -9.78125 Z M 5.046875 -9.78125 "/></g></g></g></svg>